HIERARCHY
ROOT SimulationBone
{
	OFFSET 0.000000 0.000000 0.000000
	CHANNELS 6 Xposition Yposition Zposition Zrotation Yrotation Xrotation 
	JOINT Hips
	{
		OFFSET 0.000000 0.000000 0.000000
		CHANNELS 6 Xposition Yposition Zposition Zrotation Yrotation Xrotation 
		JOINT LeftUpLeg
		{
			OFFSET 0.103456 1.857840 10.548501
			CHANNELS 3 Zrotation Yrotation Xrotation
			JOINT LeftLeg
			{
				OFFSET 43.499992 -0.000038 -0.000006
				CHANNELS 3 Zrotation Yrotation Xrotation
				JOINT LeftFoot
				{
					OFFSET 42.372196 0.000031 0.000002
					CHANNELS 3 Zrotation Yrotation Xrotation
					JOINT LeftToe
					{
						OFFSET 17.299974 -0.000010 -0.000017
						CHANNELS 3 Zrotation Yrotation Xrotation
						End Site
						{
							OFFSET 0.000000 0.000000 0.000000
						}
					}
				}
			}
		}
		JOINT RightUpLeg
		{
			OFFSET 0.103462 1.857831 -10.548510
			CHANNELS 3 Zrotation Yrotation Xrotation
			JOINT RightLeg
			{
				OFFSET 43.500046 -0.000015 0.000008
				CHANNELS 3 Zrotation Yrotation Xrotation
				JOINT RightFoot
				{
					OFFSET 42.372265 -0.000015 0.000004
					CHANNELS 3 Zrotation Yrotation Xrotation
					JOINT RightToe
					{
						OFFSET 17.299995 -0.000004 0.000013
						CHANNELS 3 Zrotation Yrotation Xrotation
						End Site
						{
							OFFSET 0.000000 0.000000 0.000000
						}
					}
				}
			}
		}
		JOINT Spine
		{
			OFFSET 6.901966 -2.603716 -0.000002
			CHANNELS 3 Zrotation Yrotation Xrotation
			JOINT Spine1
			{
				OFFSET 12.588102 -0.000001 0.000005
				CHANNELS 3 Zrotation Yrotation Xrotation
				JOINT Spine2
				{
					OFFSET 12.343201 -0.000023 -0.000011
					CHANNELS 3 Zrotation Yrotation Xrotation
					JOINT Neck
					{
						OFFSET 25.832901 0.000011 0.000007
						CHANNELS 3 Zrotation Yrotation Xrotation
						JOINT Head
						{
							OFFSET 11.766600 -0.000002 0.000002
							CHANNELS 3 Zrotation Yrotation Xrotation
							End Site
							{
								OFFSET 0.000000 0.000000 0.000000
							}
						}
					}
					JOINT LeftShoulder
					{
						OFFSET 19.745907 -1.480350 6.000119
						CHANNELS 3 Zrotation Yrotation Xrotation
						JOINT LeftArm
						{
							OFFSET 11.284122 -0.000013 -0.000023
							CHANNELS 3 Zrotation Yrotation Xrotation
							JOINT LeftForeArm
							{
								OFFSET 33.000057 0.000005 0.000025
								CHANNELS 3 Zrotation Yrotation Xrotation
								JOINT LeftHand
								{
									OFFSET 25.199997 0.000020 0.000019
									CHANNELS 3 Zrotation Yrotation Xrotation
									End Site
									{
										OFFSET 0.000000 0.000000 0.000000
									}
								}
							}
						}
					}
					JOINT RightShoulder
					{
						OFFSET 19.746096 -1.480352 -6.000062
						CHANNELS 3 Zrotation Yrotation Xrotation
						JOINT RightArm
						{
							OFFSET 11.284150 0.000007 -0.000012
							CHANNELS 3 Zrotation Yrotation Xrotation
							JOINT RightForeArm
							{
								OFFSET 33.000092 0.000019 0.000012
								CHANNELS 3 Zrotation Yrotation Xrotation
								JOINT RightHand
								{
									OFFSET 25.199797 0.000118 0.000427
									CHANNELS 3 Zrotation Yrotation Xrotation
									End Site
									{
										OFFSET 0.000000 0.000000 0.000000
									}
								}
							}
						}
					}
				}
			}
		}
	}
}
MOTION
Frames: 14
Frame Time: 0.033333
192.672108 0.000000 -6.443016 180.000000 -4.513295 180.000000 -2.348206 90.052170 -1.477551 86.846744 -0.092545 178.424565 155.386544 -14.309905 -169.448538 -26.028908 -0.888046 7.270793 74.472196 -8.661413 -11.487582 21.454555 0.003092 -0.000000 165.710484 -6.511794 172.628510 -30.209513 -1.225371 0.940847 93.434044 -1.236208 -4.866741 21.454555 -0.003107 -0.000017 6.367458 0.993835 0.611733 2.733205 1.973201 1.246461 2.414991 1.980830 1.234523 5.090584 0.538993 -13.247050 -20.516531 7.600350 -16.713792 -154.225070 -81.741696 -27.666028 16.571907 66.742204 56.790725 -29.397858 -7.982662 0.762416 8.001713 3.692392 1.509737 -172.846925 77.711167 8.742932 7.208950 -61.530073 -28.692388 -59.256256 13.621511 -2.009725 3.839234 5.059177 -1.042695 
191.851451 0.000000 -4.568000 180.000000 -0.051392 180.000000 -2.271763 89.751572 -1.539986 86.813326 -0.160723 177.151625 158.319878 -14.491699 -163.249417 -22.063861 -2.074543 5.346946 75.231849 -7.763445 -13.537759 21.454551 0.003091 -0.000001 164.899153 -5.392197 171.210535 -32.553597 -1.349548 -1.757707 94.742913 0.716532 -4.182117 21.454557 -0.003108 -0.000017 6.466847 1.002096 0.582905 2.931616 1.989335 1.190709 2.613383 1.996627 1.178673 6.040825 0.389271 -12.989959 -21.578622 7.396356 -16.523131 -155.293981 -81.812470 -26.581071 18.343048 67.288934 59.515051 -29.372197 -7.803746 0.750109 8.705775 4.597852 3.368791 -171.561047 77.579140 10.053953 5.267970 -61.013854 -27.390578 -58.749387 13.721381 -1.997805 3.681680 6.099326 -2.557001 
190.968003 0.000000 -2.815283 180.000000 4.368311 180.000000 -2.354748 89.011726 -1.851376 86.630647 -0.345891 175.735009 159.592984 -15.034197 -167.263615 -25.012578 -3.128366 5.008287 80.585864 -6.728339 -13.292241 21.454553 0.003090 0.000000 162.638033 -4.585998 170.027191 -36.903792 -2.156204 -4.336051 96.581115 2.639564 -3.158881 21.454562 -0.003109 -0.000018 6.560900 0.957948 0.510217 3.118052 1.901991 1.045756 2.799823 1.908408 1.034251 6.339601 0.032900 -12.722672 -22.084635 7.553612 -16.425121 -153.613755 -81.260092 -28.295920 17.213402 67.214102 60.134433 -29.091019 -7.503574 0.725115 8.874484 5.150716 5.017675 -170.068104 77.485416 11.576921 2.871221 -60.500880 -25.919414 -57.625179 14.049732 -1.978966 3.556714 6.501366 -3.585828 
190.039781 0.000000 -1.205584 180.000000 8.714904 180.000000 -2.686424 88.352524 -2.079577 86.339095 -2.084549 175.272159 160.658630 -13.641601 -178.446478 -27.390889 -1.159181 7.571834 84.089054 -7.666533 -11.293097 21.454555 0.003093 0.000000 159.531499 -2.390594 169.062427 -41.945329 -2.955827 -6.483426 98.176490 4.220446 -2.314230 21.454557 -0.003106 -0.000017 6.634495 0.564173 0.194465 3.258284 1.122682 0.404499 2.940114 1.125244 0.397716 6.652443 -0.081014 -12.698360 -22.904549 7.872469 -16.640827 -152.131795 -80.922230 -29.808131 14.975743 66.847041 59.324940 -29.230788 -7.467880 0.725285 9.254826 5.636822 5.724051 -170.821050 77.155586 10.806872 1.113383 -60.229776 -23.778327 -55.685457 14.690011 -1.952638 3.627523 6.704077 -3.865631 
189.059913 0.000000 0.248333 180.000000 12.963341 180.000000 -3.068029 87.978859 -2.371277 85.998585 -4.096558 175.026237 161.915850 -10.785599 177.009461 -28.283339 0.297055 7.001915 86.458502 -6.997123 -11.213907 21.454555 0.003090 0.000000 155.359497 -0.093905 168.183491 -48.073166 -3.204283 -7.908544 97.036252 5.238277 -1.846073 21.454558 -0.003108 -0.000017 6.690192 0.033125 -0.080974 3.367474 0.068508 -0.160963 3.049384 0.067672 -0.161374 6.655072 0.541787 -13.127888 -23.233734 7.984577 -17.070577 -154.505914 -81.807054 -27.378890 13.210345 66.502581 57.692545 -29.631891 -7.810095 0.755301 9.504433 5.146476 4.870126 -171.099107 76.176219 10.519062 -0.620183 -59.998335 -20.816190 -52.901127 15.119209 -1.884768 4.168858 7.393594 -3.164742 
188.045619 0.000000 1.520394 180.000000 17.094167 180.000000 -3.560832 87.870216 -2.580589 85.329925 -5.368492 174.124373 163.012901 -9.252107 174.549268 -28.653897 -0.272310 5.304552 88.031030 -5.569798 -10.951949 21.454553 0.003093 0.000000 150.595631 0.961898 169.222731 -53.710036 -4.174679 -8.562428 93.152866 5.794088 -1.099800 21.454557 -0.003108 -0.000017 6.655319 -0.376198 -0.190231 3.299144 -0.746960 -0.390949 2.981008 -0.749166 -0.386425 6.663114 0.978492 -13.377714 -23.450018 8.804328 -17.632803 -155.347175 -82.380988 -26.516102 10.711804 65.468975 55.093880 -29.947603 -8.173806 0.785231 10.050377 3.106961 5.067406 -172.007072 74.732658 9.581058 -2.033831 -59.493345 -18.280854 -49.285593 15.308652 -1.777863 5.480888 9.336939 -0.996222 
187.013770 0.000000 2.586977 180.000000 21.096407 180.000000 -3.908721 88.003143 -2.616883 85.078977 -5.754951 173.042973 164.908361 -8.427093 172.295101 -28.180932 -0.744696 3.564157 88.905676 -4.246790 -10.907021 21.454553 0.003092 -0.000000 147.054519 1.261096 171.639280 -57.861162 -5.092362 -8.010317 88.889065 5.885215 1.367210 21.454555 -0.003109 -0.000018 6.690174 -0.542795 -0.293261 3.370451 -1.076989 -0.601982 3.052323 -1.080469 -0.595466 6.752082 1.155969 -13.447280 -23.554853 9.090669 -17.814235 -154.554204 -82.093437 -27.325273 8.048123 63.434385 52.836288 -30.446221 -8.484674 0.815189 10.646304 0.104511 4.261911 -173.754876 74.207089 7.784915 -3.181881 -59.428656 -17.072333 -45.069847 15.658721 -1.670883 7.582147 12.180006 3.816468 
185.981291 0.000000 3.424425 180.000000 24.967845 180.000000 -4.197550 88.376694 -2.573399 84.708075 -5.315289 172.300584 166.744083 -7.439304 171.426683 -27.012357 -0.116465 1.098390 89.233532 -2.640129 -11.573191 21.454553 0.003087 -0.000000 144.291694 1.070206 174.672457 -60.274295 -5.217832 -6.693461 84.545243 5.800975 4.738206 21.454555 -0.003109 -0.000017 6.675082 -0.476252 -0.358392 3.340409 -0.942170 -0.730186 3.022304 -0.946426 -0.724483 6.652588 1.468169 -13.450910 -22.895622 8.954001 -17.631324 -154.102072 -82.071574 -27.783225 5.861596 61.818403 51.474317 -30.646683 -9.245523 0.869122 11.744110 -1.700583 2.604445 -172.891130 74.213400 8.670882 -3.732634 -59.732559 -16.683116 -41.181922 15.199029 -1.530292 9.545725 15.742761 7.953543 
184.960932 0.000000 4.025852 180.000000 28.711464 180.000000 -4.455863 88.736053 -2.518634 84.152792 -4.659458 171.918481 168.337075 -6.540206 170.637837 -25.590106 0.678507 -1.205063 89.338765 -1.158673 -12.126220 21.454557 0.003092 0.000000 141.820559 1.123797 177.833756 -61.871344 -4.616708 -5.410804 81.796474 5.549090 6.916146 21.454562 -0.003108 -0.000017 6.588557 -0.328200 -0.450322 3.166879 -0.644218 -0.909322 2.848789 -0.649556 -0.905412 6.456635 2.253446 -13.191423 -22.445853 8.693117 -17.066408 -152.187024 -82.735932 -29.705053 5.663650 60.663664 50.712970 -31.349421 -10.151629 0.942278 11.291776 -1.263909 2.496885 -172.240965 74.505438 9.340096 -2.284598 -59.770535 -17.576109 -38.461618 14.176541 -1.392299 10.909288 16.412765 9.743590 
183.969666 0.000000 4.369113 180.000000 32.332584 180.000000 -4.683219 88.919083 -2.476463 83.724457 -3.930651 171.527354 169.710202 -6.145602 168.068839 -24.848117 1.518714 -2.321378 89.817247 -0.385138 -12.286350 21.454553 0.003097 0.000000 140.010354 1.105497 -179.232182 -62.549677 -3.965596 -3.077854 81.873874 4.081102 7.841628 21.454558 -0.003106 -0.000017 6.556174 -0.133038 -0.532093 3.100707 -0.252080 -1.067498 2.782646 -0.258379 -1.065951 5.665210 2.666353 -12.819338 -22.023438 8.723223 -16.537512 -150.477974 -83.234441 -31.418976 6.037787 59.423527 50.367946 -32.845973 -11.150280 1.038091 10.804784 -0.101398 3.562104 -171.745134 74.827168 9.850084 -0.119174 -59.107576 -19.952941 -36.666136 13.403801 -1.297812 12.081210 15.408683 8.736464 
183.024114 0.000000 4.448135 180.000000 35.831714 180.000000 -4.947147 89.013329 -2.408859 83.228940 -3.119279 171.803146 170.504143 -6.301103 165.222959 -24.868193 1.924509 -2.633922 90.625224 -0.065447 -12.095731 21.454551 0.003089 0.000000 138.137598 1.587398 -176.053085 -62.477858 -3.282483 -1.217019 81.294558 2.730696 7.641840 21.454558 -0.003103 -0.000016 6.540962 0.088778 -0.719747 3.067872 0.196203 -1.436930 2.749866 0.187668 -1.438092 4.856974 3.699615 -12.572789 -22.134536 8.169191 -15.840810 -152.817847 -83.556368 -29.044929 6.708256 57.728342 49.701569 -34.679944 -11.564332 1.104797 11.735688 0.389455 3.626315 -171.373053 74.578952 10.229974 1.881073 -57.383336 -22.195191 -35.269273 12.473136 -1.204497 11.245445 12.692854 6.746147 
182.133329 0.000000 4.267703 180.000000 39.212617 180.000000 -5.177128 89.009163 -2.328358 82.874342 -2.479063 172.417505 171.296636 -6.461592 162.625261 -25.081810 2.108525 -2.746002 91.535470 0.120273 -11.939170 21.454555 0.003094 0.000001 136.761301 2.362304 -173.450414 -61.039393 -2.665673 0.446068 80.790797 1.568061 7.682855 21.454560 -0.003115 -0.000017 6.574238 0.259565 -0.932172 3.131268 0.543776 -1.857129 2.813316 0.532690 -1.860367 3.928487 4.851836 -12.317482 -22.615383 7.745149 -15.177749 -153.855024 -84.189144 -27.983881 6.549007 56.541334 49.023515 -35.674710 -11.670991 1.134252 11.142662 -0.038512 1.818638 -170.332023 74.037796 11.295911 3.364952 -55.439740 -24.049801 -34.063099 11.710883 -1.127730 9.914525 8.740822 4.614822 
181.300029 0.000000 3.834798 180.000000 42.486731 180.000000 -5.308308 88.874817 -2.292277 82.761714 -2.083653 172.757342 172.483559 -6.239197 159.961992 -25.122663 2.564319 -2.981501 92.418525 0.323704 -12.197713 21.454553 0.003091 -0.000001 136.063474 2.998002 -171.987223 -58.295016 -1.704001 2.119293 80.912422 0.176106 7.019391 21.454560 -0.003104 -0.000017 6.650171 0.378091 -1.051462 3.280395 0.785320 -2.092002 2.962501 0.772800 -2.096700 2.987435 5.872610 -12.048494 -22.999877 7.119215 -14.407164 -150.404795 -84.427190 -31.458058 4.681739 55.517731 48.163892 -35.825729 -11.756991 1.143337 10.210936 -0.623056 -0.051254 -168.945084 73.194233 12.718003 4.590299 -53.409634 -26.075294 -33.208667 11.154600 -1.072912 9.808217 6.114836 2.426455 
180.528812 0.000000 3.166003 180.000000 45.654056 180.000000 -5.373188 88.732597 -2.354695 82.747660 -1.827215 172.808779 174.074420 -5.441803 159.008607 -24.533478 2.857491 -4.377114 92.893100 1.213160 -12.922409 21.454550 0.003089 -0.000001 135.981690 3.471301 -170.949581 -54.132432 -0.850549 3.153661 80.996809 -0.785315 6.205965 21.454560 -0.003116 -0.000019 6.733929 0.475002 -1.100492 3.445740 0.982042 -2.186627 3.127841 0.968951 -2.192510 2.212882 6.538017 -11.591793 -23.197850 6.409961 -13.454639 -147.849130 -84.394330 -34.037066 2.677028 55.173442 45.748443 -35.323170 -11.538498 1.117571 10.795145 -2.039234 -0.418622 -168.229977 72.816087 13.451913 5.592251 -52.472180 -26.949707 -31.586063 10.991212 -1.028477 9.613406 4.085683 1.459517 
